<svg xmlns="http://www.w3.org/2000/svg" width="41" height="30" viewBox="0 0 41 30" fill="none"><path fill-rule="evenodd" clip-rule="evenodd" d="M30.3132 16.1935C30.3132 17.2026 31.1529 18.0291 32.1771 18.0291H34.8567C35.8808 18.0291 36.6929 17.2026 36.6929 16.1935V11.1783H33.568V12.7814H34.9609V16.5042H32.1771V6.62787H34.7246V9.62739H36.5887V6.93858C36.5887 5.93036 35.774 5.10352 34.7501 5.10352H32.1771C31.1529 5.10352 30.3132 5.93036 30.3132 6.93858V16.1935ZM18.7252 17.8745H16.8349V6.65423H14.8633V5.10369H20.6932V6.65423H18.7252V17.8745ZM26.3699 17.8745V12.8594H23.901V17.8745H22.0376V6.93876C22.0376 5.93037 22.8778 5.10369 23.901 5.10369H26.3961C27.4204 5.10369 28.2606 5.93037 28.2606 6.93876V17.8745H26.3699ZM23.901 11.2823H26.3699V6.62805H23.901V11.2823Z" fill="white"/><path fill-rule="evenodd" clip-rule="evenodd" d="M33.9511 29.8332L21.1886 22.3868H0.75V0.697266H40.75V22.3868H32.5861L33.9511 29.8332ZM1.99946 21.1567H21.5312L32.2362 27.4013L31.0908 21.1567H39.5004V1.92771H1.99946V21.1567Z" fill="#EAC680"/><path fill-rule="evenodd" clip-rule="evenodd" d="M12.2943 15.3539V15.1761V0.697266H4.10742V15.3539L8.20068 11.2823L12.2943 15.3539ZM11.2668 7.87561L9.15611 8.32239L10.5851 9.93168L9.33565 10.8486L8.22351 8.99282L7.1119 10.8486L5.83944 9.93168L7.24777 8.36698L5.13545 7.87561L5.61263 6.40116L7.56607 7.24906L7.40791 5.10329H8.99525L8.74669 7.20465L10.7673 6.3778L11.2668 7.87561Z" fill="#239CBF"/></svg>